<svg width="32" height="32" viewBox="0 0 32 32" fill="none" xmlns="http://www.w3.org/2000/svg">
<path d="M2.66577 12.6621C2.6658 11.1789 3.11574 9.73062 3.95616 8.5085C4.79658 7.28637 5.98795 6.34792 7.37291 5.8171C8.75787 5.28628 10.2713 5.18805 11.7132 5.53539C13.1552 5.88274 14.4579 6.65931 15.4492 7.76254C15.5191 7.8372 15.6035 7.89672 15.6972 7.93741C15.791 7.97811 15.8921 7.9991 15.9944 7.9991C16.0966 7.9991 16.1977 7.97811 16.2915 7.93741C16.3853 7.89672 16.4697 7.8372 16.5395 7.76254C17.5277 6.65214 18.8307 5.86904 20.275 5.51748C21.7193 5.16591 23.2365 5.26256 24.6245 5.79455C26.0125 6.32655 27.2056 7.26865 28.0449 8.49548C28.8843 9.72231 29.33 11.1757 29.323 12.6621C29.323 15.7144 27.3237 17.9936 25.3244 19.9929L18.0043 27.0743C17.756 27.3596 17.4498 27.5887 17.106 27.7465C16.7623 27.9043 16.389 27.9872 16.0107 27.9896C15.6325 27.9919 15.2582 27.9138 14.9125 27.7604C14.5668 27.607 14.2577 27.3817 14.0057 27.0997L6.66435 19.9929C4.66506 17.9936 2.66577 15.7277 2.66577 12.6621Z" stroke="white" stroke-width="2.66572" stroke-linecap="round" stroke-linejoin="round"/>
</svg>
