<svg width="32" height="32" viewBox="0 0 32 32" fill="none" xmlns="http://www.w3.org/2000/svg">
<path d="M18.6601 23.9916V7.99726C18.6601 7.29027 18.3792 6.61223 17.8793 6.11231C17.3794 5.61239 16.7014 5.33154 15.9944 5.33154H5.33149C4.6245 5.33154 3.94646 5.61239 3.44654 6.11231C2.94662 6.61223 2.66577 7.29027 2.66577 7.99726V22.6587C2.66577 23.0122 2.8062 23.3512 3.05616 23.6012C3.30612 23.8512 3.64513 23.9916 3.99863 23.9916H6.66435" stroke="white" stroke-width="2.66572" stroke-linecap="round" stroke-linejoin="round"/>
<path d="M19.9929 23.9917H11.9957" stroke="white" stroke-width="2.66572" stroke-linecap="round" stroke-linejoin="round"/>
<path d="M25.3243 23.9917H27.9901C28.3435 23.9917 28.6826 23.8513 28.9325 23.6013C29.1825 23.3513 29.3229 23.0123 29.3229 22.6588V17.7939C29.3224 17.4914 29.219 17.1981 29.0297 16.9622L24.3913 11.1642C24.2667 11.0081 24.1085 10.882 23.9286 10.7953C23.7486 10.7086 23.5515 10.6634 23.3517 10.6631H18.66" stroke="white" stroke-width="2.66572" stroke-linecap="round" stroke-linejoin="round"/>
<path d="M22.6586 26.6571C24.1309 26.6571 25.3244 25.4636 25.3244 23.9914C25.3244 22.5192 24.1309 21.3257 22.6586 21.3257C21.1864 21.3257 19.9929 22.5192 19.9929 23.9914C19.9929 25.4636 21.1864 26.6571 22.6586 26.6571Z" stroke="white" stroke-width="2.66572" stroke-linecap="round" stroke-linejoin="round"/>
<path d="M9.33003 26.6571C10.8023 26.6571 11.9957 25.4636 11.9957 23.9914C11.9957 22.5192 10.8023 21.3257 9.33003 21.3257C7.85779 21.3257 6.66431 22.5192 6.66431 23.9914C6.66431 25.4636 7.85779 26.6571 9.33003 26.6571Z" stroke="white" stroke-width="2.66572" stroke-linecap="round" stroke-linejoin="round"/>
</svg>
