<svg width="16" height="16" viewBox="0 0 16 16" fill="red" xmlns="http://www.w3.org/2000/svg">
<g clip-path="url(#clip0_2_3238)">
<path d="M1.33289 6.33116C1.3329 5.58956 1.55787 4.8654 1.97808 4.25434C2.39829 3.64328 2.99397 3.17405 3.68646 2.90864C4.37894 2.64323 5.13564 2.59412 5.85662 2.76779C6.5776 2.94146 7.22894 3.32975 7.72461 3.88136C7.75953 3.91869 7.80173 3.94845 7.84862 3.9688C7.89551 3.98914 7.94607 3.99964 7.99718 3.99964C8.0483 3.99964 8.09886 3.98914 8.14575 3.9688C8.19263 3.94845 8.23484 3.91869 8.26975 3.88136C8.76387 3.32616 9.41536 2.93461 10.1375 2.75883C10.8597 2.58305 11.6182 2.63137 12.3122 2.89737C13.0062 3.16336 13.6028 3.63442 14.0225 4.24783C14.4421 4.86125 14.665 5.58793 14.6615 6.33116C14.6615 7.85728 13.6618 8.99688 12.6622 9.99652L9.00216 13.5373C8.87798 13.6799 8.72488 13.7945 8.55302 13.8733C8.38116 13.9522 8.19448 13.9937 8.00537 13.9949C7.81627 13.9961 7.62908 13.957 7.45623 13.8803C7.28339 13.8036 7.12885 13.691 7.00287 13.5499L3.33218 9.99652C2.33253 8.99688 1.33289 7.86395 1.33289 6.33116Z" stroke="#0A0A0A" stroke-width="1.33286" stroke-linecap="round" stroke-linejoin="round"/>
</g>
<defs>
<clipPath id="clip0_2_3238">
<rect width="15.9943" height="15.9943" fill="red"/>
</clipPath>
</defs>
</svg>
