<svg width="24" height="24" viewBox="0 0 24 24" fill="none" xmlns="http://www.w3.org/2000/svg">
<path d="M19.9933 9.99643C19.9933 14.9877 14.4563 20.1858 12.597 21.7912C12.4238 21.9215 12.2129 21.9919 11.9962 21.9919C11.7795 21.9919 11.5686 21.9215 11.3954 21.7912C9.53606 20.1858 3.99902 14.9877 3.99902 9.99643C3.99902 7.87545 4.84158 5.84134 6.34134 4.34158C7.8411 2.84182 9.8752 1.99927 11.9962 1.99927C14.1172 1.99927 16.1513 2.84182 17.651 4.34158C19.1508 5.84134 19.9933 7.87545 19.9933 9.99643Z" stroke="#FF6900" stroke-width="1.99929" stroke-linecap="round" stroke-linejoin="round"/>
<path d="M11.996 12.9954C13.6523 12.9954 14.9949 11.6528 14.9949 9.99649C14.9949 8.34023 13.6523 6.99756 11.996 6.99756C10.3397 6.99756 8.99707 8.34023 8.99707 9.99649C8.99707 11.6528 10.3397 12.9954 11.996 12.9954Z" stroke="#FF6900" stroke-width="1.99929" stroke-linecap="round" stroke-linejoin="round"/>
</svg>
