<svg width="32" height="32" viewBox="0 0 32 32" fill="none" xmlns="http://www.w3.org/2000/svg">
<path d="M14.6667 8.00008C16.1394 8.00008 17.3333 6.80617 17.3333 5.33341C17.3333 3.86066 16.1394 2.66675 14.6667 2.66675C13.1939 2.66675 12 3.86066 12 5.33341C12 6.80617 13.1939 8.00008 14.6667 8.00008Z" stroke="#ff6900" stroke-width="2.66572" stroke-linecap="round" stroke-linejoin="round"/>
<path d="M24 13.3333C25.4728 13.3333 26.6667 12.1394 26.6667 10.6667C26.6667 9.19391 25.4728 8 24 8C22.5273 8 21.3334 9.19391 21.3334 10.6667C21.3334 12.1394 22.5273 13.3333 24 13.3333Z" stroke="#ff6900" stroke-width="2.66572" stroke-linecap="round" stroke-linejoin="round"/>
<path d="M26.6667 24.0001C28.1394 24.0001 29.3333 22.8062 29.3333 21.3334C29.3333 19.8607 28.1394 18.6667 26.6667 18.6667C25.1939 18.6667 24 19.8607 24 21.3334C24 22.8062 25.1939 24.0001 26.6667 24.0001Z" stroke="#ff6900" stroke-width="2.66572" stroke-linecap="round" stroke-linejoin="round"/>
<path d="M12 13.3333C12.8755 13.3333 13.7424 13.5057 14.5512 13.8407C15.3601 14.1758 16.095 14.6668 16.714 15.2859C17.3331 15.9049 17.8242 16.6399 18.1592 17.4487C18.4942 18.2575 18.6667 19.1244 18.6667 19.9999V24.6666C18.6663 25.7819 18.2665 26.8601 17.5397 27.7061C16.813 28.5521 15.8073 29.1098 14.7048 29.2782C13.6023 29.4466 12.4759 29.2147 11.5297 28.6243C10.5835 28.0339 9.88001 27.1242 9.54666 26.0599C8.97777 24.2244 7.77777 23.0221 5.94666 22.4533C4.8829 22.1201 3.97355 21.4171 3.38314 20.4716C2.79273 19.5261 2.56028 18.4005 2.72784 17.2984C2.8954 16.1964 3.45191 15.1907 4.29667 14.4634C5.14142 13.7361 6.21861 13.3352 7.33332 13.3333H12Z" stroke="#ff6900" stroke-width="2.66572" stroke-linecap="round" stroke-linejoin="round"/>
</svg>
