<svg width="32" height="32" viewBox="0 0 32 32" fill="none" xmlns="http://www.w3.org/2000/svg">
<path fill-rule="evenodd" clip-rule="evenodd" d="M26.3334 15.9999C26.3334 15.7347 26.2281 15.4803 26.0405 15.2928C25.853 15.1053 25.5986 14.9999 25.3334 14.9999H6.66675C6.40153 14.9999 6.14718 15.1053 5.95964 15.2928C5.7721 15.4803 5.66675 15.7347 5.66675 15.9999C5.66675 16.2651 5.7721 16.5195 5.95964 16.707C6.14718 16.8946 6.40153 16.9999 6.66675 16.9999H25.3334C25.5986 16.9999 25.853 16.8946 26.0405 16.707C26.2281 16.5195 26.3334 16.2651 26.3334 15.9999ZM26.3334 9.33325C26.3334 9.06804 26.2281 8.81368 26.0405 8.62615C25.853 8.43861 25.5986 8.33325 25.3334 8.33325H6.66675C6.40153 8.33325 6.14718 8.43861 5.95964 8.62615C5.7721 8.81368 5.66675 9.06804 5.66675 9.33325C5.66675 9.59847 5.7721 9.85282 5.95964 10.0404C6.14718 10.2279 6.40153 10.3333 6.66675 10.3333H25.3334C25.5986 10.3333 25.853 10.2279 26.0405 10.0404C26.2281 9.85282 26.3334 9.59847 26.3334 9.33325ZM26.3334 22.6666C26.3334 22.4014 26.2281 22.147 26.0405 21.9595C25.853 21.7719 25.5986 21.6666 25.3334 21.6666H6.66675C6.40153 21.6666 6.14718 21.7719 5.95964 21.9595C5.7721 22.147 5.66675 22.4014 5.66675 22.6666C5.66675 22.9318 5.7721 23.1862 5.95964 23.3737C6.14718 23.5612 6.40153 23.6666 6.66675 23.6666H25.3334C25.5986 23.6666 25.853 23.5612 26.0405 23.3737C26.2281 23.1862 26.3334 22.9318 26.3334 22.6666Z" fill="#364153"/>
</svg>
