<svg width="24" height="24" viewBox="0 0 24 24" fill="none" xmlns="http://www.w3.org/2000/svg">
<path d="M13.8268 16.5621C14.0333 16.6569 14.2659 16.6786 14.4863 16.6235C14.7067 16.5685 14.9018 16.44 15.0394 16.2592L15.3943 15.7944C15.5805 15.5461 15.822 15.3445 16.0996 15.2057C16.3772 15.0669 16.6833 14.9947 16.9937 14.9947H19.9926C20.5229 14.9947 21.0314 15.2053 21.4063 15.5802C21.7813 15.9552 21.9919 16.4637 21.9919 16.9939V19.9929C21.9919 20.5231 21.7813 21.0316 21.4063 21.4066C21.0314 21.7815 20.5229 21.9922 19.9926 21.9922C15.2204 21.9922 10.6437 20.0964 7.26923 16.722C3.89477 13.3475 1.99902 8.77076 1.99902 3.99856C1.99902 3.46831 2.20966 2.95979 2.5846 2.58485C2.95954 2.20991 3.46807 1.99927 3.99831 1.99927H6.99725C7.52749 1.99927 8.03602 2.20991 8.41096 2.58485C8.7859 2.95979 8.99654 3.46831 8.99654 3.99856V6.99749C8.99654 7.30787 8.92427 7.61399 8.78547 7.8916C8.64666 8.16921 8.44513 8.4107 8.19682 8.59692L7.72899 8.9478C7.54547 9.08793 7.41612 9.28726 7.36291 9.51195C7.3097 9.73663 7.33591 9.97281 7.43709 10.1804C8.80329 12.9552 11.0502 15.1994 13.8268 16.5621Z" stroke="#FF6900" stroke-width="1.99929" stroke-linecap="round" stroke-linejoin="round"/>
</svg>
