<svg width="32" height="32" viewBox="0 0 32 32" fill="none" xmlns="http://www.w3.org/2000/svg">
<path d="M26.6573 17.3272C26.6573 23.9915 21.9923 27.3237 16.4476 29.2563C16.1572 29.3547 15.8419 29.35 15.5546 29.243C9.99655 27.3237 5.33154 23.9915 5.33154 17.3272V7.9972C5.33154 7.6437 5.47197 7.30469 5.72193 7.05473C5.97189 6.80477 6.31091 6.66434 6.6644 6.66434C9.33012 6.66434 12.6623 5.06491 14.9814 3.03896C15.2638 2.79771 15.623 2.66516 15.9944 2.66516C16.3658 2.66516 16.725 2.79771 17.0074 3.03896C19.3399 5.07824 22.6587 6.66434 25.3244 6.66434C25.6779 6.66434 26.017 6.80477 26.2669 7.05473C26.5169 7.30469 26.6573 7.6437 26.6573 7.9972V17.3272Z" stroke="white" stroke-width="2.66572" stroke-linecap="round" stroke-linejoin="round"/>
</svg>
