<svg width="198" height="85" viewBox="0 0 198 85" fill="none" xmlns="http://www.w3.org/2000/svg">
<path d="M197.719 25.3788C197.719 58.3713 167.072 84.5961 128.517 84.5961L69.2016 84.5961C30.6464 84.5961 0 58.3713 0 25.3788L0 0L197.719 0V25.3788Z" fill="#FF6900"/>
<path d="M92.9576 22.1328C94.3052 22.1328 95.5417 22.6365 96.4417 23.567C97.3418 24.4986 97.8759 25.8285 97.8759 27.4329C97.8759 29.0294 97.3487 30.6318 96.489 31.8446C95.6332 33.0516 94.3937 33.9369 92.9576 33.9369C91.5214 33.9369 90.282 33.0516 89.4262 31.8446C88.5664 30.6318 88.0392 29.0294 88.0392 27.4338C88.0392 25.8285 88.5733 24.4986 89.4744 23.567C90.3734 22.6365 91.6099 22.1328 92.9576 22.1328ZM82.1371 30.9859C83.4848 30.9859 84.7212 31.4895 85.6213 32.4201C86.5214 33.3516 87.0555 34.6816 87.0555 36.2859C87.0555 37.8824 86.5283 39.4849 85.6685 40.6977C84.8127 41.9047 83.5733 42.79 82.1371 42.79C80.701 42.79 79.4615 41.9047 78.6057 40.6977C77.746 39.4849 77.2188 37.8815 77.2188 36.2869C77.2188 34.6816 77.7529 33.3516 78.6539 32.4201C79.553 31.4895 80.7895 30.9859 82.1371 30.9859ZM99.3515 37.8716C92.3438 37.8716 86.5381 43.8376 84.7104 51.3185C83.8999 54.6374 85.1364 58.1973 88.1858 59.8843C90.6085 61.2261 94.2344 62.4635 99.3505 62.4635C104.468 62.4635 108.093 61.2261 110.517 59.8843C113.566 58.1973 114.802 54.6374 113.992 51.3195C112.165 43.8376 106.358 37.8716 99.3515 37.8716ZM116.566 30.9859C115.218 30.9859 113.982 31.4895 113.083 32.4201C112.182 33.3516 111.647 34.6816 111.647 36.2859C111.647 37.8824 112.175 39.4849 113.034 40.6977C113.89 41.9047 115.13 42.79 116.566 42.79C118.002 42.79 119.241 41.9047 120.097 40.6977C120.957 39.4849 121.484 37.8824 121.484 36.2869C121.484 34.6816 120.95 33.3516 120.05 32.4201C119.15 31.4895 117.913 30.9859 116.566 30.9859ZM105.745 22.1328C104.398 22.1328 103.161 22.6365 102.262 23.567C101.361 24.4986 100.827 25.8285 100.827 27.4329C100.827 29.0294 101.354 30.6318 102.214 31.8446C103.07 33.0516 104.309 33.9369 105.745 33.9369C107.182 33.9369 108.421 33.0516 109.277 31.8446C110.136 30.6318 110.664 29.0294 110.664 27.4338C110.664 25.8285 110.13 24.4986 109.23 23.567C108.329 22.6365 107.093 22.1328 105.745 22.1328Z" fill="white"/>
</svg>
