<svg width="176" height="206" viewBox="0 0 176 206" fill="none" xmlns="http://www.w3.org/2000/svg">
<path d="M80.6615 185.894C80.6615 187.459 80.0397 188.96 78.9329 190.067C77.826 191.174 76.3248 191.796 74.7595 191.796C73.1942 191.796 71.6929 191.174 70.5861 190.067C69.4792 188.96 68.8574 187.459 68.8574 185.894C68.8574 184.379 69.428 183.002 70.3526 181.959C69.428 180.916 68.8574 179.539 68.8574 178.024C68.8574 176.459 69.4792 174.958 70.5861 173.851C71.6929 172.744 73.1942 172.122 74.7595 172.122C76.3248 172.122 77.826 172.744 78.9329 173.851C80.0397 174.958 80.6615 176.459 80.6615 178.024C83.2781 178.182 85.9144 178.359 88.5309 178.359C91.1475 178.359 93.7838 178.182 96.4003 178.024C96.4003 176.459 97.0222 174.958 98.129 173.851C99.2359 172.744 100.737 172.122 102.302 172.122C103.868 172.122 105.369 172.744 106.476 173.851C107.583 174.958 108.204 176.459 108.204 178.024C108.204 179.539 107.634 180.916 106.709 181.959C107.634 183.002 108.204 184.379 108.204 185.894C108.204 187.459 107.583 188.96 106.476 190.067C105.369 191.174 103.868 191.796 102.302 191.796C100.737 191.796 99.2359 191.174 98.129 190.067C97.0222 188.96 96.4003 187.459 96.4003 185.894C93.7838 185.736 91.1475 185.559 88.5309 185.559C85.9144 185.559 83.2781 185.736 80.6615 185.894Z" fill="#A94500"/>
<g clip-path="url(#clip0_2_3384)">
<path d="M134.82 31.632C134.148 33.0458 132.942 34.1348 131.468 34.6594C129.993 35.1839 128.37 35.1012 126.956 34.4293C125.542 33.7574 124.454 32.5514 123.929 31.0766C123.404 29.6018 123.487 27.979 124.159 26.5652C124.809 25.197 125.916 24.1981 127.198 23.6532C126.811 22.3145 126.887 20.8258 127.537 19.4576C128.209 18.0438 129.415 16.9549 130.89 16.4303C132.364 15.9057 133.987 15.9885 135.401 16.6604C136.815 17.3323 137.904 18.5383 138.428 20.0131C138.953 21.4879 138.87 23.1107 138.198 24.5245C140.494 25.7898 142.799 27.0813 145.162 28.2044C147.526 29.3276 149.983 30.2992 152.413 31.2802C153.085 29.8665 154.291 28.7775 155.766 28.2529C157.241 27.7283 158.864 27.8111 160.277 28.483C161.691 29.1549 162.78 30.3609 163.305 31.8357C163.829 33.3105 163.747 34.9333 163.075 36.3471C162.424 37.7153 161.318 38.7142 160.035 39.259C160.423 40.5977 160.347 42.0864 159.697 43.4546C159.025 44.8684 157.819 45.9574 156.344 46.482C154.869 47.0065 153.247 46.9238 151.833 46.2519C150.419 45.58 149.33 44.374 148.805 42.8992C148.281 41.4244 148.364 39.8016 149.035 38.3878C146.74 37.1225 144.435 35.831 142.071 34.7078C139.708 33.5847 137.251 32.613 134.82 31.632Z" fill="#A94500"/>
</g>
<path fill-rule="evenodd" clip-rule="evenodd" d="M158.456 108.551C159.807 109.902 160.712 111.53 161.173 113.254C162.619 113.643 163.964 114.336 165.119 115.288C166.274 116.24 167.213 117.428 167.871 118.772C168.529 120.117 168.892 121.586 168.935 123.082C168.979 124.578 168.701 126.066 168.122 127.447C167.543 128.827 166.675 130.067 165.577 131.084C164.479 132.101 163.176 132.872 161.755 133.343C160.335 133.815 158.83 133.978 157.341 133.82C155.853 133.662 154.416 133.188 153.126 132.429L145.238 140.317C146.004 141.607 146.484 143.047 146.646 144.539C146.808 146.031 146.649 147.541 146.178 148.966C145.708 150.391 144.937 151.698 143.918 152.8C142.899 153.902 141.656 154.773 140.272 155.354C138.889 155.934 137.396 156.212 135.896 156.167C134.396 156.122 132.923 155.756 131.576 155.094C130.23 154.431 129.041 153.488 128.09 152.327C127.139 151.166 126.447 149.815 126.063 148.365C124.617 147.976 123.272 147.282 122.117 146.33C120.962 145.378 120.023 144.19 119.365 142.846C118.707 141.502 118.344 140.032 118.301 138.536C118.257 137.04 118.535 135.552 119.114 134.172C119.693 132.792 120.561 131.551 121.659 130.534C122.757 129.517 124.06 128.747 125.481 128.275C126.901 127.803 128.406 127.641 129.895 127.798C131.383 127.956 132.82 128.43 134.11 129.189L141.996 121.299C140.708 119.099 140.265 116.505 140.749 114.002C141.234 111.499 142.612 109.258 144.628 107.697C146.643 106.136 149.158 105.362 151.703 105.519C154.247 105.676 156.647 106.754 158.456 108.551Z" fill="#A94500"/>
<path d="M17.1309 119.699C18.8623 119.029 20.8038 119.041 22.5331 119.501L31.4811 121.883C32.5054 120.174 34.1395 118.917 36.0539 118.366C38.0453 117.793 40.0823 118.042 41.7962 118.914L48.1092 112.14C49.3292 110.831 50.9673 109.789 52.7895 109.434C54.6927 109.066 56.7714 109.469 58.4402 111.028C60.5367 112.982 62.7108 116.145 64.164 121.195C65.6173 126.244 65.4564 130.076 64.7203 132.848C64.1354 135.056 62.5892 136.502 60.7818 137.203C59.0496 137.87 57.1082 137.859 55.3789 137.398L46.4309 135.017C45.4066 136.725 43.7724 137.982 41.8581 138.533C39.9437 139.084 37.8916 138.888 36.1157 137.986L29.8028 144.759C28.5828 146.069 26.9446 147.111 25.1218 147.463C23.2193 147.834 21.1406 147.43 19.4718 145.871C17.3753 143.917 15.2011 140.754 13.7479 135.705C12.2947 130.656 12.4555 126.823 13.1917 124.051C13.7765 121.844 15.3235 120.4 17.1309 119.699Z" fill="#A94500"/>
<path d="M103.09 55.0649L103.399 55.0781C103.607 55.0992 103.811 55.145 104.008 55.2145L104.092 55.2538L104.808 55.524C109.886 57.5464 114.487 61.4785 118.587 67.2651L119.23 68.1964C119.523 68.6301 119.68 69.1417 119.68 69.6653C119.68 70.1889 119.523 70.7005 119.23 71.1343C114.765 77.742 109.692 82.0885 104.037 84.1109C103.538 84.2889 102.998 84.312 102.486 84.1771C101.975 84.0423 101.516 83.7559 101.17 83.3555C98.4639 80.2307 96.745 76.374 96.2304 72.2727H90.8267V80.1421C90.8267 80.8378 90.5503 81.505 90.0584 81.997C89.5665 82.4889 88.8993 82.7653 88.2036 82.7653C87.5079 82.7653 86.8407 82.4889 86.3487 81.997C85.8568 81.505 85.5804 80.8378 85.5804 80.1421V72.2727H80.3342V74.8958C80.3342 75.5915 80.0578 76.2588 79.5659 76.7507C79.0739 77.2426 78.4067 77.519 77.711 77.519C77.0153 77.519 76.3481 77.2426 75.8562 76.7507C75.3643 76.2588 75.0879 75.5915 75.0879 74.8958V72.2727H72.0293L71.1506 73.1226C69.5673 74.6863 68.0354 76.3013 66.5574 77.9649C66.0955 78.4853 65.4458 78.8009 64.7512 78.8422C64.0565 78.8835 63.374 78.6472 62.8536 78.1853C62.3332 77.7233 62.0176 77.0736 61.9763 76.379C61.935 75.6844 62.1713 75.0018 62.6332 74.4814C63.6703 73.315 64.7317 72.1713 65.8177 71.0503L67.187 69.6653L65.8151 68.2777C65.2731 67.7168 64.7371 67.1502 64.2071 66.5779L62.6332 64.844C62.4045 64.5863 62.2288 64.2861 62.1161 63.9605C62.0033 63.635 61.9559 63.2904 61.9763 62.9464C61.9968 62.6025 62.0848 62.2659 62.2353 61.956C62.3858 61.6461 62.5959 61.3689 62.8536 61.1401C63.1112 60.9114 63.4114 60.7357 63.737 60.6229C64.0626 60.5102 64.4072 60.4627 64.7512 60.4832C65.0951 60.5037 65.4316 60.5917 65.7415 60.7422C66.0515 60.8927 66.3287 61.1028 66.5574 61.3605C68.2952 63.317 70.1056 65.2079 71.9847 67.0291L75.0879 67.0264V64.4033C75.0879 63.7076 75.3643 63.0404 75.8562 62.5485C76.3481 62.0565 77.0153 61.7802 77.711 61.7802C78.4067 61.7802 79.0739 62.0565 79.5659 62.5485C80.0578 63.0404 80.3342 63.7076 80.3342 64.4033V67.0264H85.5804V59.157C85.5804 58.4613 85.8568 57.7941 86.3487 57.3022C86.8407 56.8103 87.5079 56.5339 88.2036 56.5339C88.8993 56.5339 89.5665 56.8103 90.0584 57.3022C90.5503 57.7941 90.8267 58.4613 90.8267 59.157V67.0264H96.2356C96.7096 63.2382 98.2119 59.6521 100.58 56.6572L101.094 56.0276L101.29 55.8152L101.566 55.5843L101.744 55.4584L101.999 55.322L102.18 55.2433L102.542 55.1331L102.78 55.0885C102.884 55.0763 102.987 55.0684 103.09 55.0649ZM106.566 64.4033C105.923 64.4034 105.303 64.6393 104.823 65.0662C104.343 65.4931 104.036 66.0815 103.961 66.7195L103.942 67.0527C103.943 67.7213 104.199 68.3643 104.658 68.8505C105.117 69.3366 105.744 69.6292 106.412 69.6684C107.079 69.7076 107.736 69.4904 108.249 69.0613C108.762 68.6322 109.091 68.0235 109.17 67.3596L109.189 67.0264C109.189 66.3307 108.912 65.6635 108.42 65.1716C107.928 64.6797 107.261 64.4033 106.566 64.4033Z" fill="#A94500"/>
<path d="M39.706 29.2827L39.873 29.2568C39.9862 29.2459 40.1003 29.2484 40.2129 29.2643L40.2619 29.2762L40.6734 29.343C43.6026 29.8733 46.4768 31.4639 49.2773 34.0883L49.7188 34.5124C49.9212 34.7106 50.0587 34.9645 50.1136 35.2413C50.1685 35.5181 50.1384 35.8053 50.027 36.0657C48.3314 40.0332 46.0729 42.8698 43.2592 44.5394C43.0112 44.6863 42.7245 44.7559 42.4365 44.7389C42.1486 44.722 41.873 44.6192 41.646 44.4442C39.8705 43.0793 38.5463 41.2227 37.8408 39.1088L34.9496 39.6824L35.775 43.8431C35.848 44.2109 35.7701 44.593 35.5585 44.9053C35.3469 45.2176 35.0189 45.4346 34.6467 45.5084C34.2745 45.5823 33.8885 45.507 33.5737 45.2991C33.2589 45.0912 33.0411 44.7678 32.9681 44.3999L32.1427 40.2392L29.3358 40.7961L29.6109 42.183C29.6839 42.5508 29.606 42.9329 29.3944 43.2452C29.1828 43.5575 28.8548 43.7745 28.4825 43.8483C28.1103 43.9221 27.7244 43.8468 27.4096 43.639C27.0948 43.4311 26.8769 43.1076 26.8039 42.7398L26.5288 41.3529L24.8924 41.6775L24.5113 42.2202C23.8282 43.215 23.178 44.2314 22.5618 45.2679C22.3692 45.5921 22.0547 45.8279 21.6873 45.9235C21.32 46.019 20.9301 45.9665 20.6032 45.7775C20.2763 45.5885 20.0393 45.2785 19.9444 44.9156C19.8494 44.5528 19.9042 44.1668 20.0968 43.8426C20.5293 43.1158 20.9773 42.3985 21.4407 41.6905L22.0281 40.8129L21.1485 40.2249C20.7997 39.9858 20.4535 39.7431 20.1099 39.4968L19.086 38.7471C18.9366 38.6352 18.811 38.4951 18.7166 38.3349C18.6221 38.1748 18.5606 37.9976 18.5354 37.8136C18.5103 37.6296 18.5221 37.4423 18.5701 37.2624C18.6182 37.0826 18.7015 36.9137 18.8154 36.7654C18.9292 36.6172 19.0714 36.4924 19.2338 36.3982C19.3962 36.3041 19.5756 36.2424 19.7617 36.2167C19.9479 36.191 20.1372 36.2018 20.3188 36.2485C20.5004 36.2952 20.6708 36.3769 20.8202 36.4888C21.9552 37.3388 23.1221 38.1464 24.3185 38.9099L25.9785 38.5791L25.7034 37.1922C25.6304 36.8244 25.7083 36.4423 25.9199 36.13C26.1315 35.8176 26.4595 35.6007 26.8317 35.5269C27.204 35.453 27.5899 35.5283 27.9047 35.7362C28.2195 35.9441 28.4374 36.2675 28.5103 36.6354L28.7855 38.0223L31.5924 37.4654L30.767 33.3047C30.6941 32.9369 30.7719 32.5548 30.9835 32.2425C31.1951 31.9302 31.5231 31.7132 31.8954 31.6394C32.2676 31.5655 32.6535 31.6408 32.9683 31.8487C33.2831 32.0566 33.501 32.38 33.574 32.7479L34.3994 36.9086L37.2933 36.3345C37.1496 34.2813 37.5773 32.2258 38.5299 30.391L38.7389 30.0035L38.8219 29.8703L38.945 29.719L39.0273 29.6335L39.1491 29.5344L39.2377 29.4736L39.4198 29.3769L39.5428 29.328C39.5968 29.3106 39.6511 29.2955 39.706 29.2827ZM42.5451 33.8511C42.2013 33.9194 41.8943 34.1099 41.6822 34.3866C41.4701 34.6633 41.3676 35.0069 41.3943 35.3523L41.4195 35.5303C41.49 35.8838 41.6944 36.1966 41.991 36.4049C42.2875 36.6132 42.6538 36.7013 43.015 36.6512C43.3763 36.6011 43.7051 36.4165 43.9344 36.1352C44.1637 35.8539 44.2762 35.4971 44.2488 35.1377L44.2237 34.9596C44.1507 34.5918 43.9328 34.2684 43.618 34.0605C43.3032 33.8526 42.9173 33.7773 42.5451 33.8511Z" fill="#A94500"/>
<defs>
<clipPath id="clip0_2_3384">
<rect width="47.2164" height="47.2164" fill="white" transform="translate(132.428) rotate(25.4195)"/>
</clipPath>
</defs>
</svg>
